<?xml version="1.0" encoding="UTF-8"?>
<svg width="256px" height="256px" viewBox="0 0 256 256" version="1.1" xmlns="http://www.w3.org/2000/svg">
    <g stroke="none" stroke-width="1" fill="none" fill-rule="evenodd">
        <g transform="translate(40, 20)">
            <!-- Pot -->
            <path d="M30,160 L140,160 L150,216 L20,216 Z" fill="#8B4513" />
            <!-- Soil -->
            <path d="M30,160 L140,160 L135,140 L35,140 Z" fill="#3B2314" />
            <!-- Main Stem -->
            <path d="M85,140 L85,40" stroke="#228B22" stroke-width="6" />
            <!-- Leaves -->
            <path d="M85,100 C65,80 30,90 25,60 C30,55 50,65 85,100" fill="#32CD32" />
            <path d="M85,100 C105,80 140,90 145,60 C140,55 120,65 85,100" fill="#32CD32" />
            <path d="M85,70 C65,50 30,60 25,30 C30,25 50,35 85,70" fill="#32CD32" />
            <path d="M85,70 C105,50 140,60 145,30 C140,25 120,35 85,70" fill="#32CD32" />
            <!-- Sensor -->
            <rect x="40" y="150" width="5" height="30" fill="#A9A9A9" />
            <circle cx="42.5" cy="185" r="4" fill="#4682B4" />
        </g>
    </g>
</svg> 